<svg xmlns="http://www.w3.org/2000/svg" viewBox="0 0 128 128" role="img" aria-label="A$AP MOB FC crest">
  <defs>
    <linearGradient id="gold" x1="0" y1="0" x2="1" y2="1">
      <stop offset="0" stop-color="#fff1a8"/>
      <stop offset="0.42" stop-color="#d6a93a"/>
      <stop offset="0.72" stop-color="#8a641e"/>
      <stop offset="1" stop-color="#f4d06f"/>
    </linearGradient>
    <linearGradient id="black" x1="0" y1="0" x2="1" y2="1">
      <stop offset="0" stop-color="#202020"/>
      <stop offset="1" stop-color="#050505"/>
    </linearGradient>
    <filter id="shadow" x="-20%" y="-20%" width="140%" height="140%">
      <feDropShadow dx="0" dy="5" stdDeviation="4" flood-color="#000" flood-opacity="0.55"/>
    </filter>
  </defs>
  <g filter="url(#shadow)">
    <path d="M44 26c6-13 13-18 20-18s14 5 20 18c-8-4-14-4-20-2-6-2-12-2-20 2Z" fill="url(#gold)" stroke="#2a1b05" stroke-width="2"/>
    <path d="M53 15l5 11 6-15 6 15 5-11 3 18H50l3-18Z" fill="url(#black)" stroke="url(#gold)" stroke-width="3"/>
    <circle cx="64" cy="22" r="4" fill="url(#gold)" stroke="#2a1b05" stroke-width="1.5"/>
    <circle cx="64" cy="71" r="48" fill="url(#black)" stroke="#2a1b05" stroke-width="4"/>
    <circle cx="64" cy="71" r="43" fill="none" stroke="url(#gold)" stroke-width="4"/>
    <circle cx="64" cy="71" r="30" fill="#0a0a09" stroke="url(#gold)" stroke-width="3"/>
    <path d="M13 64h33v17H13zM82 64h33v17H82z" fill="url(#black)" stroke="url(#gold)" stroke-width="3"/>
    <text x="64" y="53" text-anchor="middle" font-size="17" font-family="Georgia, serif" font-weight="900" fill="url(#gold)" stroke="#2a1b05" stroke-width="0.6">A$AP</text>
    <text x="29" y="77" text-anchor="middle" font-size="14" font-family="Georgia, serif" font-weight="900" fill="url(#gold)" stroke="#2a1b05" stroke-width="0.5">MOB</text>
    <text x="99" y="77" text-anchor="middle" font-size="14" font-family="Georgia, serif" font-weight="900" fill="url(#gold)" stroke="#2a1b05" stroke-width="0.5">FC</text>
    <text x="64" y="87" text-anchor="middle" font-size="38" font-family="Georgia, serif" font-weight="900" fill="url(#gold)" stroke="#2a1b05" stroke-width="1.4">M</text>
    <path d="M50 89l14 13 14-13" fill="none" stroke="url(#gold)" stroke-width="4" stroke-linecap="round" stroke-linejoin="round"/>
    <circle cx="64" cy="105" r="8" fill="url(#gold)" stroke="#2a1b05" stroke-width="2"/>
    <path d="M59 102l5-3 5 3v6l-5 3-5-3Z" fill="#111" stroke="#5f3f0b" stroke-width="1"/>
    <path d="M33 45l-5 2 5 2 2 5 2-5 5-2-5-2-2-5-2 5ZM91 45l-5 2 5 2 2 5 2-5 5-2-5-2-2-5-2 5Z" fill="url(#gold)"/>
    <path d="M39 97c-8-4-14-10-17-19M89 97c8-4 14-10 17-19" fill="none" stroke="url(#gold)" stroke-width="3" stroke-linecap="round"/>
  </g>
</svg>
